<mxfile host="app.diagrams.net" modified="2023-08-21T23:12:55.523Z" agent="Mozilla/5.0 (Windows NT 10.0; Win64; x64) AppleWebKit/537.36 (KHTML, like Gecko) Chrome/114.0.0.0 Safari/537.36 OPR/100.0.0.0" etag="PkfAS0NJGxXgQVjH1CNY" version="21.6.8" type="github">
  <diagram name="Página-1" id="d5nHRJRhPMtocUsoR-BO">
    <mxGraphModel dx="763" dy="405" grid="1" gridSize="10" guides="1" tooltips="1" connect="1" arrows="1" fold="1" page="1" pageScale="1" pageWidth="827" pageHeight="1169" math="0" shadow="0">
      <root>
        <mxCell id="0" />
        <mxCell id="1" parent="0" />
        <mxCell id="JRhBq1AKiVZBemUOLeFl-1" value="" style="rounded=0;whiteSpace=wrap;html=1;" vertex="1" parent="1">
          <mxGeometry x="140" y="130" width="470" height="420" as="geometry" />
        </mxCell>
        <mxCell id="JRhBq1AKiVZBemUOLeFl-5" style="edgeStyle=orthogonalEdgeStyle;rounded=0;orthogonalLoop=1;jettySize=auto;html=1;entryX=0;entryY=0.5;entryDx=0;entryDy=0;" edge="1" parent="1" source="JRhBq1AKiVZBemUOLeFl-2" target="JRhBq1AKiVZBemUOLeFl-4">
          <mxGeometry relative="1" as="geometry" />
        </mxCell>
        <mxCell id="JRhBq1AKiVZBemUOLeFl-2" value="Funcionário" style="shape=umlActor;verticalLabelPosition=bottom;verticalAlign=top;html=1;outlineConnect=0;" vertex="1" parent="1">
          <mxGeometry x="50" y="310" width="30" height="60" as="geometry" />
        </mxCell>
        <mxCell id="JRhBq1AKiVZBemUOLeFl-7" style="edgeStyle=orthogonalEdgeStyle;rounded=0;orthogonalLoop=1;jettySize=auto;html=1;exitX=1;exitY=0.5;exitDx=0;exitDy=0;entryX=0;entryY=0.5;entryDx=0;entryDy=0;dashed=1;" edge="1" parent="1" source="JRhBq1AKiVZBemUOLeFl-4" target="JRhBq1AKiVZBemUOLeFl-6">
          <mxGeometry relative="1" as="geometry" />
        </mxCell>
        <mxCell id="JRhBq1AKiVZBemUOLeFl-4" value="Cadastrar Cliente" style="ellipse;whiteSpace=wrap;html=1;" vertex="1" parent="1">
          <mxGeometry x="230" y="190" width="120" height="80" as="geometry" />
        </mxCell>
        <mxCell id="JRhBq1AKiVZBemUOLeFl-6" value="Verificar Cliente Existente" style="ellipse;whiteSpace=wrap;html=1;" vertex="1" parent="1">
          <mxGeometry x="414" y="190" width="120" height="80" as="geometry" />
        </mxCell>
        <mxCell id="JRhBq1AKiVZBemUOLeFl-10" value="Vender Produto" style="ellipse;whiteSpace=wrap;html=1;" vertex="1" parent="1">
          <mxGeometry x="354" y="300" width="120" height="80" as="geometry" />
        </mxCell>
        <mxCell id="JRhBq1AKiVZBemUOLeFl-11" value="" style="html=1;verticalAlign=bottom;endArrow=block;edgeStyle=elbowEdgeStyle;elbow=horizontal;curved=0;rounded=0;entryX=0;entryY=0.5;entryDx=0;entryDy=0;exitX=0.5;exitY=0.5;exitDx=0;exitDy=0;exitPerimeter=0;" edge="1" parent="1" source="JRhBq1AKiVZBemUOLeFl-2" target="JRhBq1AKiVZBemUOLeFl-10">
          <mxGeometry width="80" relative="1" as="geometry">
            <mxPoint x="160" y="339.47" as="sourcePoint" />
            <mxPoint x="200" y="330" as="targetPoint" />
          </mxGeometry>
        </mxCell>
        <mxCell id="JRhBq1AKiVZBemUOLeFl-13" value="&lt;br&gt;" style="edgeLabel;html=1;align=center;verticalAlign=middle;resizable=0;points=[];" vertex="1" connectable="0" parent="JRhBq1AKiVZBemUOLeFl-11">
          <mxGeometry x="0.0641" y="9" relative="1" as="geometry">
            <mxPoint as="offset" />
          </mxGeometry>
        </mxCell>
        <mxCell id="JRhBq1AKiVZBemUOLeFl-14" value="Cadastrar Produto" style="ellipse;whiteSpace=wrap;html=1;" vertex="1" parent="1">
          <mxGeometry x="230" y="410" width="120" height="80" as="geometry" />
        </mxCell>
        <mxCell id="JRhBq1AKiVZBemUOLeFl-15" style="edgeStyle=orthogonalEdgeStyle;rounded=0;orthogonalLoop=1;jettySize=auto;html=1;exitX=1;exitY=0;exitDx=0;exitDy=0;entryX=0;entryY=1;entryDx=0;entryDy=0;dashed=1;" edge="1" parent="1" source="JRhBq1AKiVZBemUOLeFl-10" target="JRhBq1AKiVZBemUOLeFl-6">
          <mxGeometry relative="1" as="geometry">
            <mxPoint x="420" y="300" as="sourcePoint" />
            <mxPoint x="510" y="300" as="targetPoint" />
          </mxGeometry>
        </mxCell>
        <mxCell id="JRhBq1AKiVZBemUOLeFl-16" style="edgeStyle=orthogonalEdgeStyle;rounded=0;orthogonalLoop=1;jettySize=auto;html=1;entryX=0;entryY=0.5;entryDx=0;entryDy=0;exitX=0.5;exitY=0.5;exitDx=0;exitDy=0;exitPerimeter=0;" edge="1" parent="1" source="JRhBq1AKiVZBemUOLeFl-2" target="JRhBq1AKiVZBemUOLeFl-14">
          <mxGeometry relative="1" as="geometry">
            <mxPoint x="90" y="350" as="sourcePoint" />
            <mxPoint x="240" y="240" as="targetPoint" />
          </mxGeometry>
        </mxCell>
        <mxCell id="JRhBq1AKiVZBemUOLeFl-20" style="edgeStyle=orthogonalEdgeStyle;rounded=0;orthogonalLoop=1;jettySize=auto;html=1;exitX=1;exitY=0.5;exitDx=0;exitDy=0;entryX=0;entryY=0.5;entryDx=0;entryDy=0;dashed=1;" edge="1" parent="1">
          <mxGeometry relative="1" as="geometry">
            <mxPoint x="354" y="449.55" as="sourcePoint" />
            <mxPoint x="418" y="449.55" as="targetPoint" />
            <Array as="points">
              <mxPoint x="384" y="449.55" />
              <mxPoint x="384" y="449.55" />
            </Array>
          </mxGeometry>
        </mxCell>
        <mxCell id="JRhBq1AKiVZBemUOLeFl-21" value="Verificar Produto Existente" style="ellipse;whiteSpace=wrap;html=1;" vertex="1" parent="1">
          <mxGeometry x="414" y="410" width="120" height="80" as="geometry" />
        </mxCell>
        <mxCell id="JRhBq1AKiVZBemUOLeFl-22" style="edgeStyle=orthogonalEdgeStyle;rounded=0;orthogonalLoop=1;jettySize=auto;html=1;exitX=1;exitY=1;exitDx=0;exitDy=0;entryX=0;entryY=0;entryDx=0;entryDy=0;dashed=1;" edge="1" parent="1" source="JRhBq1AKiVZBemUOLeFl-10" target="JRhBq1AKiVZBemUOLeFl-21">
          <mxGeometry relative="1" as="geometry">
            <mxPoint x="534" y="366.73" as="sourcePoint" />
            <mxPoint x="510" y="312.73" as="targetPoint" />
          </mxGeometry>
        </mxCell>
      </root>
    </mxGraphModel>
  </diagram>
</mxfile>
